<svg xmlns="http://www.w3.org/2000/svg" viewBox="0 0 512 512">
  <defs>
    <linearGradient id="bg" x1="0" y1="0" x2="1" y2="1">
      <stop offset="0%" stop-color="#374062"/>
      <stop offset="55%" stop-color="#181824"/>
      <stop offset="100%" stop-color="#090910"/>
    </linearGradient>
    <linearGradient id="gold" x1="0" y1="0" x2="1" y2="1">
      <stop offset="0%" stop-color="#ffe7a6"/>
      <stop offset="55%" stop-color="#d4a84f"/>
      <stop offset="100%" stop-color="#8f6522"/>
    </linearGradient>
    <linearGradient id="accent" x1="0" y1="0" x2="1" y2="1">
      <stop offset="0%" stop-color="#ff8c5a"/>
      <stop offset="100%" stop-color="#ff4f8b"/>
    </linearGradient>
    <filter id="shadow" x="-20%" y="-20%" width="140%" height="140%">
      <feDropShadow dx="0" dy="16" stdDeviation="18" flood-color="#000000" flood-opacity="0.35"/>
    </filter>
  </defs>

  <rect width="512" height="512" rx="112" fill="url(#bg)"/>

  <g fill="#ffffff" opacity="0.1">
    <circle cx="96" cy="100" r="4"/>
    <circle cx="146" cy="72" r="3"/>
    <circle cx="416" cy="92" r="4"/>
    <circle cx="382" cy="132" r="3"/>
    <circle cx="104" cy="404" r="4"/>
    <circle cx="404" cy="398" r="3"/>
  </g>

  <g filter="url(#shadow)">
    <rect x="122" y="122" width="202" height="272" rx="26" fill="#120f1e" stroke="#ffffff" stroke-opacity="0.08" stroke-width="6" transform="rotate(-8 223 258)"/>
    <rect x="188" y="108" width="202" height="296" rx="28" fill="#f6edd9" stroke="url(#gold)" stroke-width="10" transform="rotate(7 289 256)"/>
  </g>

  <g transform="rotate(7 289 256)">
    <text x="289" y="162" fill="#9b7631" font-family="Georgia, 'Times New Roman', serif" font-size="36" font-weight="700" text-anchor="middle">TAROT</text>
    <circle cx="289" cy="238" r="62" fill="#151321"/>
    <circle cx="289" cy="238" r="54" fill="url(#accent)"/>
    <text x="289" y="260" fill="#fff7ea" font-family="Georgia, 'Times New Roman', serif" font-size="82" font-weight="700" text-anchor="middle">G</text>

    <path d="M232 320 C250 292 280 290 289 318 C298 290 328 292 346 320 C327 344 309 357 289 372 C269 357 251 344 232 320 Z" fill="#16131f" opacity="0.9"/>

    <rect x="228" y="389" width="122" height="36" rx="18" fill="#16131f" opacity="0.92"/>
    <text x="259" y="414" fill="#66e2a3" font-family="Arial, sans-serif" font-size="26" font-weight="700" text-anchor="middle">+78</text>
    <text x="319" y="414" fill="#ff7c93" font-family="Arial, sans-serif" font-size="26" font-weight="700" text-anchor="middle">-26</text>
  </g>
</svg>